<?xml version="1.0" encoding="utf-8"?>
<!-- Generator: Adobe Illustrator 27.8.1, SVG Export Plug-In . SVG Version: 6.00 Build 0)  -->
<svg version="1.1" id="Layer_1" xmlns="http://www.w3.org/2000/svg" xmlns:xlink="http://www.w3.org/1999/xlink" x="0px" y="0px"
	 viewBox="0 0 699.87 356.95" style="enable-background:new 0 0 699.87 356.95;" xml:space="preserve">
<style type="text/css">
	.st0{fill:#472F8E;}
	.st1{fill:#8067AD;}
	.st2{fill:#008FCD;}
	.st3{fill:#48308D;}
	.st4{fill:#F68D5C;}
	.st5{fill:#D52027;}
	.st6{fill:#353437;}
	.st7{fill:#E71C23;}
	.st8{fill:#E71C23;stroke:#E71C23;stroke-width:43;stroke-linecap:round;stroke-linejoin:round;stroke-miterlimit:10;}
	.st9{fill:#FFFFFF;}
	.st10{fill:#E71F26;}
	.st11{fill:#1A191A;}
	.st12{fill:#ED1C24;}
	.st13{fill:#7C7C7C;}
	.st14{fill:#1B1919;}
	.st15{fill:#1A1A1A;}
	.st16{fill:#9A1B1F;}
	.st17{fill:#EC1E24;}
	.st18{fill:#FEFDFD;}
	.st19{fill:#981B1E;}
	.st20{fill:#991C1F;}
	.st21{fill:#771616;}
	.st22{fill:#E6E6E6;}
	.st23{fill:#FCFCFC;}
	.st24{fill:#E6E6E5;}
	.st25{fill:#FBFAFA;}
	.st26{fill:#868585;}
	.st27{fill:#949393;}
	.st28{fill:#E7E7E7;}
	.st29{fill:#E7E7E6;}
	.st30{fill:#ED1E24;}
	.st31{fill:#991B1E;}
	.st32{fill:#9E1C1F;}
	.st33{fill:#8D191B;}
	.st34{fill:#8C181A;}
	.st35{fill:#E91E25;}
	.st36{fill:#961B1E;}
	.st37{fill:#FCF8F7;}
	.st38{fill:#F7F7F7;}
	.st39{fill:#70706F;}
	.st40{fill:#9F9F9F;}
	.st41{fill:#6A6969;}
	.st42{fill:#9F9E9E;}
	.st43{fill:#1B1A1A;}
	.st44{fill:#EA1E24;}
	.st45{fill:#E01E24;}
	.st46{fill:#FEFEFE;}
	.st47{fill:#E7E6E6;}
	.st48{fill:#323278;}
	.st49{fill:#F47A20;}
	.st50{fill:#482F91;}
	.st51{fill:none;stroke:#000000;stroke-width:1.0015;stroke-miterlimit:10;}
	.st52{fill:#008A4B;}
	.st53{fill:none;stroke:#FFF200;stroke-width:4;stroke-miterlimit:10;}
</style>
<g>
	<g>
		<path class="st12" d="M124.54,132.95c-0.33,0.4-5.67,6.86-7.52,8.47c-1.91,1.67-12.78,17.22-33.73-7.29c0,0,0.82,0.47,2.26,1.14
			c0,0,0,0,0.01,0.01c5.92,2.77,22.33,9.01,35.51,0.38C122.26,134.88,123.41,133.98,124.54,132.95z"/>
		<g>
			<g>
				<path class="st52" d="M323.31,98.24c0.37,2.18,0.55,4.36,0.55,6.54v48.16h-26.35v-47.07c0-2.67-0.36-5.21-1.09-7.63
					c-1.7-5.09-4.72-9.24-9.09-12.45c-4.36-3.21-9.27-4.82-14.72-4.82c-6.9,0-12.81,2.43-17.72,7.27
					c-4.9,4.85-7.36,10.72-7.36,17.63c0,4.6,1.12,8.81,3.36,12.63c2.24,3.82,5.27,6.85,9.09,9.09c3.82,2.25,8.02,3.36,12.63,3.36
					c7.39,0,13.51-2.73,18.36-8.18v31.08c-5.94,2.3-12.06,3.45-18.36,3.45c-14.17,0-26.29-5.02-36.35-15.08
					c-10.06-10.06-15.08-22.17-15.08-36.35c0-14.18,5.02-26.29,15.08-36.35c10.06-10.06,22.17-15.08,36.35-15.08
					c12.84,0,24.05,4.18,33.62,12.54C315.8,75.34,321.49,85.76,323.31,98.24z"/>
				<path class="st52" d="M386.37,130.95c2.79,0,5.48-0.48,8.09-1.45c2.6-0.97,4.96-2.27,7.09-3.91c2.12-1.63,3.96-3.54,5.54-5.72
					l24.72,10c-2.91,5.45-6.63,10.24-11.17,14.35c-4.54,4.12-9.79,7.33-15.72,9.63c-5.94,2.3-12.12,3.45-18.54,3.45
					c-14.17,0-26.29-5.02-36.35-15.08c-10.06-10.06-15.08-22.17-15.08-36.35c0-14.18,5.02-26.29,15.08-36.35
					c10.06-10.06,22.17-15.08,36.35-15.08c6.91,0,13.48,1.33,19.72,4c6.24,2.67,11.69,6.3,16.36,10.9c4.66,4.6,8.33,9.94,11,15.99
					l-24.54,10c-2.06-4.36-5.12-7.84-9.18-10.45c-4.06-2.6-8.51-3.9-13.36-3.9c-6.9,0-12.81,2.43-17.72,7.27
					c-4.9,4.85-7.36,10.72-7.36,17.63c0,4.6,1.12,8.81,3.36,12.63c2.24,3.82,5.27,6.85,9.09,9.09
					C377.56,129.83,381.77,130.95,386.37,130.95z"/>
				<path class="st52" d="M471.97,152.94h-26.35V23.36h26.35V152.94z M534.67,54.44l-41.25,49.25l41.25,49.25h-33.26l-27.26-35.98
					V90.42l27.26-35.98H534.67z"/>
				<path class="st52" d="M634.26,95.33c0.97,5.33,1.09,10.72,0.36,16.17c-0.12,0.85-0.3,1.82-0.55,2.91l-27.81,1.09l-44.34,1.63
					c1.09,1.82,2.36,3.45,3.82,4.91c4,4.24,8.9,6.72,14.72,7.45c2.18,0.37,4.33,0.39,6.45,0.09c2.12-0.3,4.15-0.85,6.09-1.64
					c1.94-0.79,3.75-1.79,5.45-3c1.69-1.21,3.21-2.61,4.54-4.18l29.99-1.09c-3.63,11.87-10.75,21.26-21.35,28.17
					c-10.6,6.9-22.2,9.51-34.8,7.82c-9.45-1.21-17.84-4.78-25.17-10.72c-7.33-5.94-12.63-13.2-15.9-21.81
					c-0.73-1.7-1.27-3.39-1.64-5.09c-1.7-6.18-2.18-12.54-1.45-19.08c0-0.12,0-0.42,0-0.91c0.24-1.57,0.55-2.97,0.91-4.18
					c2.79-12.96,9.63-23.32,20.54-31.08c10.91-7.75,23.02-10.72,36.35-8.91c10.18,1.33,19.11,5.33,26.81,11.99
					c7.69,6.66,12.93,14.78,15.72,24.35C633.47,91.94,633.9,93.63,634.26,95.33z M559.75,98.06l47.43-1.82
					c-0.73-1.7-1.57-3.33-2.54-4.91c-4.12-6.54-10-10.3-17.63-11.27c-5.21-0.73-10.12,0.09-14.72,2.45
					c-4.6,2.36-8.12,5.79-10.54,10.27C560.9,94.48,560.23,96.24,559.75,98.06z"/>
				<path class="st52" d="M686.6,54.44h13.27v23.99h-9.45c-4.72,0-8.79,1.67-12.18,5c-3.39,3.33-5.09,7.42-5.09,12.27v57.25H646.8
					v-58.7c0-10.9,3.88-20.26,11.63-28.08C666.19,58.35,675.58,54.44,686.6,54.44z"/>
			</g>
		</g>
		<path class="st12" d="M481.48,271.34c-4.11,2.06-8.17,4.2-12.3,6.23c-0.88,0.44-1.98,0.47-2.86-0.06
			c-4.02-2.41-8.45-4.02-12.53-6.33c-4.31-2.44-8.58-4.97-13.33-6.48c-1.04-0.32-2.16-0.66-2.91-1.5c1.21-1.34,3.26-2.09,4.79-3.04
			c1.68-1.05,3.38-2.08,5.19-2.9c3.02-1.38,5.98-2.98,8.94-4.48c3.18-1.6,6.31-3.27,9.47-4.89c1.41-0.72,2.8-0.52,4.16,0.18
			c4.42,2.33,8.74,4.91,13.32,6.88c4.32,1.87,8.27,4.49,12.71,6.05c0.75,0.27,1.36,0.93,2.17,1.52c-2.17,1.98-4.9,2.79-7.29,4.12
			C487.91,268.35,484.65,269.76,481.48,271.34z"/>
		<path class="st12" d="M501.42,294.18c0.15,2.43-1.19,3.3-2.93,4.16c-3.41,1.72-6.81,3.48-10.23,5.17c-3,1.47-6.05,2.84-9.04,4.31
			c-2.32,1.13-4.55,2.44-6.88,3.53c-2.15,1-2.41,0.79-2.41-1.51c-0.01-8.57,0.11-17.15-0.1-25.72c-0.07-2.54,1.27-3.39,3.06-4.27
			c3.13-1.52,6.25-3.03,9.35-4.57c4.71-2.33,9.4-4.67,14.11-6.97c1.13-0.54,2.1-1.31,3.33-1.73c1.52-0.51,1.69-0.01,1.68,1.24
			c-0.03,4.64-0.01,9.28-0.01,13.92C501.35,285.88,501.16,290.04,501.42,294.18z"/>
		<path class="st12" d="M501.18,165.87v54.54c-4.63-3.91-9.27-5.64-9.27-5.64c-8.4-3.26-17.07-4.9-25.98-4.9
			c-20.08,0-37.23,7.12-51.48,21.37c-14.24,14.24-21.35,31.4-21.35,51.47c0,20.08,7.11,37.24,21.35,51.48
			c14.25,14.25,31.4,21.36,51.48,21.36c18.18,0,34.06-5.93,47.61-17.76s21.63-26.58,24.2-44.26c0.51-3.09,0.76-6.18,0.76-9.28
			V165.87H501.18z M503.53,296.94c-0.02,0.89-0.51,1.69-1.31,2.09l-31.13,15.28c-1.04,0.51-2.26,0.49-3.27-0.08l-5.61-3.09
			c-3.3-1.72-6.49-3.39-9.72-5.03c-3.16-1.6-6.36-3.14-9.54-4.71c-2.94-1.45-5.82-3.01-8.81-4.34c-1.55-0.69-3.33-0.14-5.01-0.22
			c-2.74-0.14-5.48-0.02-8.23-0.07c-1.76-0.03-2.91-1.28-2.97-3.09c-0.07-1.69,1.02-2.86,2.84-2.92c2.81-0.1,5.63-0.1,8.44-0.13
			c0.42-0.01,0.88,0.09,1.26-0.04c1.61-0.51,3.04-1.33,3.13-3.23c0.06-1.47-1.63-2.79-3.66-2.83c-3.94-0.08-7.89-0.02-11.82-0.02
			c-0.92,0-1.84,0.08-2.75-0.02c-3.13-0.32-3.41-1.22-3.33-3.41c0.09-2.17,1.12-3.25,3.45-3.28c2.96-0.03,5.91,0.02,8.87-0.02
			c1.95-0.03,2.97-1.06,2.9-2.8c-0.08-1.68-1.21-2.76-3.04-2.77c-4.93-0.03-9.85-0.01-14.78-0.02c-2.35-0.01-3.74-1.27-3.72-3.32
			c0.02-2.22,1.21-3.35,3.65-3.37l10.94-0.05c4.18-0.02,8.28-1.04,11.98-2.98l33.41-17.51c0.98-0.51,2.15-0.53,3.15-0.05
			l33.84,16.63c0.78,0.37,1.28,1.17,1.27,2.05L503.53,296.94z"/>
		<g>
			<g>
				<path class="st52" d="M224,271.91c0.52,3.09,0.77,6.18,0.77,9.27v68.2h-37.32v-66.66c0-3.77-0.51-7.38-1.54-10.81
					c-2.41-7.21-6.69-13.08-12.87-17.63c-6.18-4.54-13.13-6.82-20.85-6.82c-9.78,0-18.14,3.43-25.09,10.29
					c-6.95,6.86-10.42,15.18-10.42,24.96c0,6.52,1.58,12.48,4.76,17.89c3.17,5.4,7.46,9.7,12.87,12.87
					c5.4,3.18,11.36,4.76,17.88,4.76c10.47,0,19.13-3.86,25.99-11.58v44.01c-8.41,3.26-17.07,4.89-25.99,4.89
					c-20.07,0-37.23-7.12-51.47-21.36c-14.24-14.24-21.36-31.4-21.36-51.47c0-20.08,7.12-37.23,21.36-51.47
					c14.24-14.24,31.4-21.36,51.47-21.36c18.19,0,34.06,5.92,47.62,17.76C213.37,239.48,221.43,254.24,224,271.91z"/>
				<path class="st52" d="M315.37,210.14c11.33,0,21.06,1.85,29.21,5.53c8.14,3.69,14.5,8.97,19.04,15.83
					c4.54,6.86,7.85,14.5,9.91,22.91c2.06,8.41,3.09,17.85,3.09,28.31v66.66H339.3v-66.66c0-9.78-2.7-18.1-8.11-24.96
					c-5.4-6.86-11.88-10.29-19.43-10.29c-7.38,0-13.73,3.26-19.04,9.78c-5.32,6.52-8.15,14.5-8.49,23.94h-0.26v68.2h-37.32V209.88
					h37.32v9.78C293.57,213.32,304.04,210.14,315.37,210.14z"/>
				<path class="st52" d="M699.1,271.91c0.52,3.09,0.77,6.18,0.77,9.27v68.2h-37.32v-66.66c0-3.77-0.51-7.38-1.54-10.81
					c-2.41-7.21-6.69-13.08-12.87-17.63c-6.18-4.54-13.13-6.82-20.85-6.82c-9.78,0-18.14,3.43-25.09,10.29
					c-6.95,6.86-10.42,15.18-10.42,24.96c0,6.52,1.58,12.48,4.76,17.89c3.17,5.4,7.46,9.7,12.87,12.87
					c5.4,3.18,11.36,4.76,17.88,4.76c10.47,0,19.13-3.86,25.99-11.58v44.01c-8.41,3.26-17.07,4.89-25.99,4.89
					c-20.07,0-37.23-7.12-51.47-21.36c-14.24-14.24-21.36-31.4-21.36-51.47c0-20.08,7.12-37.23,21.36-51.47
					c14.24-14.24,31.4-21.36,51.47-21.36c18.19,0,34.06,5.92,47.62,17.76C688.46,239.48,696.53,254.24,699.1,271.91z"/>
			</g>
		</g>
		<g>
			<path class="st12" d="M61.46,9.12l7.28-2.96C66.27,7.06,63.84,8.04,61.46,9.12z"/>
			<path class="st12" d="M177.38,27.96l-0.43-0.43c-15.08-12.24-29.77-18.08-29.77-18.08c-0.08-0.04-0.16-0.08-0.24-0.11
				c-0.84-0.38-1.68-0.75-2.53-1.12C132,2.93,118.31,0,103.96,0C91.6,0,79.73,2.17,68.75,6.16l-7.28,2.96c0,0-18.61,7.8-31.18,18.75
				C14.16,43.87,4.42,63.29,1.1,86.1C0.37,90.54,0,94.94,0,99.37v257.58h53.38v-166.3c6.62,5.6,13.24,8.07,13.24,8.07
				c12.01,4.66,24.4,7.01,37.16,7.01c28.7,0,53.23-10.19,73.6-30.55c20.36-20.37,30.53-44.9,30.53-73.61
				C207.91,72.86,197.74,48.32,177.38,27.96z M103.89,176.72c-40.95,0-74.16-33.2-74.16-74.16c0-0.23,0-0.47,0.01-0.7
				c0.15-17.24,6.19-33.09,16.21-45.6c-0.28-0.1-0.54-0.22-0.81-0.35c-1.8-0.85-3.33-2.1-4.42-3.74c-4.41-6.58-0.44-16.97,8.87-23.2
				c9.31-6.23,20.41-5.95,24.82,0.63c0.61,0.91,1.06,1.89,1.36,2.93c0.11,0.42,0.21,0.85,0.28,1.28c8.6-3.5,17.99-5.42,27.84-5.42
				c10.78,0,21.03,2.3,30.27,6.45c0.1-0.42,0.21-0.83,0.36-1.23c0.28-0.78,0.66-1.53,1.13-2.22c4.41-6.58,15.52-6.86,24.83-0.63
				c9.3,6.24,13.27,16.62,8.87,23.2c-1.24,1.86-3.02,3.21-5.14,4.05c-0.26,0.1-0.52,0.21-0.8,0.29
				c9.07,12.18,14.49,27.24,14.64,43.57c0.01,0.23,0.01,0.47,0.01,0.7C178.05,143.51,144.85,176.72,103.89,176.72z"/>
			<path class="st12" d="M91.41,63.94c-6.13-10.03-23.18-10.77-38.08-1.67c-11.54,7.06-18.4,17.95-18.06,27.16
				c0.09,2.69,0.8,5.23,2.18,7.5c6.13,10.03,23.18,10.77,38.08,1.66c10.96-6.7,17.7-16.88,18.06-25.76
				C93.73,69.63,93.03,66.59,91.41,63.94z M73.67,83.46c-0.38,0.08-0.74,0.16-0.95,0.27c-0.54,0.28-4.1,1.54-7.65-0.31
				c-2.44-1.28-7.25-0.86-10.01-0.47c-1.25,0.17-2.08,0.33-2.08,0.33s8.81-8.57,15.95-4.52c0,0,4.76,2.85,5.95,4.52
				C74.88,83.29,74.27,83.35,73.67,83.46z"/>
			<path class="st12" d="M172.95,90.2c-0.36-8.89-7.1-19.06-18.06-25.75c-14.9-9.12-31.95-8.37-38.08,1.66
				c-1.38,2.26-2.1,4.81-2.18,7.49c-0.34,9.21,6.52,20.1,18.06,27.16c14.9,9.11,31.95,8.37,38.08-1.66
				C172.39,96.45,173.08,93.41,172.95,90.2z M152.84,83.62c-0.37,0.07-0.74,0.15-0.96,0.27c-0.54,0.28-4.1,1.54-7.65-0.3
				c-2.43-1.28-7.25-0.86-10-0.47c-1.25,0.17-2.08,0.33-2.08,0.33s8.8-8.57,15.94-4.52c0,0,4.77,2.85,5.95,4.52
				C154.04,83.45,153.44,83.51,152.84,83.62z"/>
			<g>
				<g>
					<path class="st12" d="M126.9,116.19c0,5.22-10.31,9.45-23.02,9.45c-12.7,0-23.01-4.23-23.01-9.45c0-0.24,0.02-0.47,0.07-0.7
						c0.87-4.89,10.81-8.74,22.94-8.74c12.14,0,22.08,3.85,22.95,8.74C126.88,115.72,126.9,115.95,126.9,116.19z"/>
				</g>
			</g>
		</g>
	</g>
</g>
</svg>
