<?xml version="1.0" encoding="utf-8"?>
<!-- Generator: Adobe Illustrator 27.8.1, SVG Export Plug-In . SVG Version: 6.00 Build 0)  -->
<svg version="1.1" id="Layer_1" xmlns="http://www.w3.org/2000/svg" xmlns:xlink="http://www.w3.org/1999/xlink" x="0px" y="0px"
	 viewBox="0 0 500 500" style="enable-background:new 0 0 500 500;" xml:space="preserve">
<style type="text/css">
	.st0{fill:#472F8E;}
	.st1{fill:#8067AD;}
	.st2{fill:#008FCD;}
	.st3{fill:#48308D;}
	.st4{fill:#F68D5C;}
	.st5{fill:#D52027;}
	.st6{fill:#353437;}
	.st7{fill:#E71C23;}
	.st8{fill:#E71C23;stroke:#E71C23;stroke-width:43;stroke-linecap:round;stroke-linejoin:round;stroke-miterlimit:10;}
	.st9{fill:#FFFFFF;}
	.st10{fill:#E71F26;}
	.st11{fill:#1A191A;}
	.st12{fill:#ED1C24;}
	.st13{fill:#7C7C7C;}
	.st14{fill:#1B1919;}
	.st15{fill:#1A1A1A;}
	.st16{fill:#9A1B1F;}
	.st17{fill:#EC1E24;}
	.st18{fill:#FEFDFD;}
	.st19{fill:#981B1E;}
	.st20{fill:#991C1F;}
	.st21{fill:#771616;}
	.st22{fill:#E6E6E6;}
	.st23{fill:#FCFCFC;}
	.st24{fill:#E6E6E5;}
	.st25{fill:#FBFAFA;}
	.st26{fill:#868585;}
	.st27{fill:#949393;}
	.st28{fill:#E7E7E7;}
	.st29{fill:#E7E7E6;}
	.st30{fill:#ED1E24;}
	.st31{fill:#991B1E;}
	.st32{fill:#9E1C1F;}
	.st33{fill:#8D191B;}
	.st34{fill:#8C181A;}
	.st35{fill:#E91E25;}
	.st36{fill:#961B1E;}
	.st37{fill:#FCF8F7;}
	.st38{fill:#F7F7F7;}
	.st39{fill:#70706F;}
	.st40{fill:#9F9F9F;}
	.st41{fill:#6A6969;}
	.st42{fill:#9F9E9E;}
	.st43{fill:#1B1A1A;}
	.st44{fill:#EA1E24;}
	.st45{fill:#E01E24;}
	.st46{fill:#FEFEFE;}
	.st47{fill:#E7E6E6;}
	.st48{fill:#323278;}
	.st49{fill:#F47A20;}
	.st50{fill:#482F91;}
	.st51{fill:none;stroke:#000000;stroke-width:1.0015;stroke-miterlimit:10;}
	.st52{fill:#008A4B;}
	.st53{fill:none;stroke:#FFF200;stroke-width:4;stroke-miterlimit:10;}
</style>
<g>
	<path class="st9" d="M201.44,107.29c-6.08-9.95-22.97-10.68-37.75-1.66c-11.43,7-18.24,17.79-17.9,26.92
		c0.09,2.66,0.8,5.19,2.17,7.44c6.07,9.94,22.97,10.67,37.74,1.64c10.86-6.64,17.55-16.73,17.9-25.54
		C203.73,112.92,203.04,109.91,201.44,107.29z M183.85,126.63c-0.38,0.07-0.74,0.15-0.94,0.26c-0.54,0.28-4.06,1.53-7.58-0.3
		c-2.42-1.26-7.18-0.85-9.92-0.46c-1.24,0.17-2.06,0.33-2.06,0.33s8.73-8.5,15.81-4.48c0,0,4.72,2.82,5.9,4.48
		C185.05,126.46,184.44,126.51,183.85,126.63z"/>
	<path class="st9" d="M193.39,176.84c0.1,0.05,0.89,0.5,2.23,1.13c0,0,0,0,0.01,0.01c5.87,2.75,22.13,8.93,35.19,0.38
		c1.18-0.77,2.33-1.66,3.44-2.68c-0.33,0.4-5.63,6.8-7.46,8.4C224.92,185.72,214.15,201.13,193.39,176.84z"/>
	<path class="st9" d="M213.79,168.42c-12.58,0-22.8-4.19-22.8-9.36c0-0.24,0.02-0.46,0.07-0.69c0.86-4.84,10.72-8.66,22.74-8.66
		c12.03,0,21.89,3.82,22.75,8.66c0.04,0.23,0.07,0.46,0.07,0.69C236.61,164.23,226.39,168.42,213.79,168.42z"/>
	<path class="st9" d="M282.24,133.31c-0.36-8.81-7.04-18.89-17.9-25.52c-14.77-9.04-31.67-8.3-37.75,1.64
		c-1.37,2.23-2.08,4.76-2.16,7.42c-0.34,9.13,6.46,19.92,17.9,26.92c14.77,9.02,31.66,8.29,37.74-1.64
		C281.68,139.5,282.37,136.49,282.24,133.31z M262.31,126.79c-0.37,0.07-0.74,0.15-0.95,0.27c-0.54,0.27-4.06,1.53-7.58-0.3
		c-2.41-1.27-7.18-0.85-9.92-0.46c-1.24,0.18-2.06,0.33-2.06,0.33s8.72-8.49,15.8-4.47c0,0,4.73,2.82,5.9,4.47
		C263.5,126.62,262.9,126.68,262.31,126.79z"/>
	<path class="st9" d="M286.64,71.62l-0.43-0.43c-14.95-12.13-29.5-17.91-29.5-17.91c-0.07-0.04-0.16-0.07-0.24-0.11
		c-0.83-0.38-1.66-0.75-2.51-1.11c-12.31-5.25-25.87-8.15-40.09-8.15c-12.26,0-24.02,2.15-34.9,6.1c-2.46,0.88-4.87,1.86-7.22,2.93
		c0,0-18.45,7.73-30.9,18.58c-15.98,15.86-25.63,35.11-28.93,57.72c-0.71,4.39-1.08,8.76-1.08,13.14v332.5
		c16.51,10.23,34.23,18.69,52.9,25.11V232.86c6.56,5.54,13.13,7.99,13.13,7.99c11.91,4.62,24.18,6.94,36.82,6.94
		c28.45,0,52.76-10.1,72.95-30.28c20.18-20.19,30.26-44.5,30.26-72.95S306.81,91.81,286.64,71.62z M213.79,219.05
		c-40.58,0-73.49-32.9-73.49-73.49c0-0.23,0-0.46,0.01-0.69c0.15-17.09,6.13-32.79,16.06-45.19c-0.27-0.1-0.54-0.22-0.8-0.35
		c-1.78-0.84-3.3-2.08-4.39-3.7c-4.36-6.52-0.44-16.82,8.79-22.99c9.22-6.17,20.24-5.9,24.6,0.63c0.6,0.9,1.05,1.87,1.35,2.9
		c0.12,0.42,0.21,0.84,0.27,1.27c8.53-3.46,17.83-5.37,27.59-5.37c10.69,0,20.85,2.28,30,6.38c0.1-0.41,0.21-0.82,0.36-1.22
		c0.27-0.77,0.65-1.51,1.11-2.2c4.36-6.52,15.39-6.79,24.61-0.62c9.22,6.18,13.15,16.47,8.79,22.99c-1.22,1.84-2.99,3.18-5.09,4.01
		c-0.25,0.1-0.52,0.21-0.79,0.29c8.99,12.07,14.36,27,14.5,43.18c0.01,0.22,0.01,0.46,0.01,0.69
		C287.3,186.15,254.39,219.05,213.79,219.05z M338.01,0v270.26c-6.35-5.36-12.7-7.73-12.7-7.73c-11.52-4.47-23.39-6.72-35.61-6.72
		c-27.52,0-51.03,9.76-70.56,29.28c-19.51,19.51-29.26,43.04-29.26,70.55c0,27.52,9.75,51.04,29.26,70.55
		c19.53,19.53,43.04,29.27,70.56,29.27c24.93,0,46.68-8.12,65.25-24.34s29.64-36.44,33.17-60.67c0.69-4.24,1.05-8.47,1.05-12.72
		V24.51C373.16,14.6,356.04,6.35,338.01,0z M341.24,375.14c-0.03,1.22-0.71,2.31-1.79,2.86l-42.67,20.95
		c-1.42,0.7-3.1,0.66-4.48-0.11l-7.69-4.23c-4.52-2.35-8.9-4.65-13.31-6.89c-4.33-2.2-8.71-4.3-13.07-6.46
		c-4.03-1.98-7.97-4.13-12.08-5.95c-2.13-0.94-4.56-0.19-6.86-0.29c-3.75-0.2-7.52-0.03-11.28-0.1c-2.42-0.04-3.99-1.75-4.08-4.23
		c-0.1-2.31,1.39-3.92,3.89-4c3.86-0.13,7.71-0.13,11.57-0.18c0.58-0.01,1.2,0.12,1.72-0.05c2.2-0.71,4.17-1.82,4.28-4.43
		c0.08-2.01-2.23-3.83-5.01-3.89c-5.4-0.1-10.81-0.02-16.21-0.02c-1.25,0-2.52,0.1-3.76-0.03c-4.29-0.44-4.68-1.67-4.56-4.68
		c0.12-2.98,1.53-4.45,4.73-4.49c4.05-0.04,8.1,0.02,12.16-0.03c2.68-0.04,4.08-1.45,3.97-3.84c-0.1-2.3-1.66-3.77-4.17-3.79
		c-6.75-0.04-13.5-0.01-20.26-0.03c-3.21-0.01-5.12-1.73-5.09-4.55c0.02-3.04,1.66-4.59,5.01-4.61l14.99-0.07
		c5.73-0.03,11.35-1.42,16.42-4.08l45.79-24c1.35-0.71,2.96-0.73,4.31-0.07l46.39,22.79c1.07,0.51,1.75,1.61,1.73,2.81
		L341.24,375.14z M338.25,354.32c0-6.37-0.03-12.72,0.01-19.08c0.01-1.72-0.22-2.41-2.3-1.7c-1.68,0.57-3.02,1.62-4.56,2.37
		c-6.46,3.15-12.89,6.36-19.34,9.55c-4.26,2.1-8.53,4.18-12.82,6.26c-2.45,1.2-4.28,2.38-4.19,5.85
		c0.29,11.74,0.12,23.49,0.13,35.25c0,3.15,0.36,3.44,3.3,2.06c3.21-1.49,6.26-3.28,9.44-4.84c4.11-2.01,8.27-3.89,12.39-5.9
		c4.69-2.31,9.34-4.73,14.02-7.08c2.37-1.17,4.22-2.37,4.01-5.7C337.98,365.69,338.25,359.99,338.25,354.32z M324.06,333.62
		c3.28-1.82,7.02-2.93,10-5.65c-1.11-0.8-1.95-1.71-2.98-2.08c-6.09-2.15-11.5-5.74-17.42-8.3c-6.27-2.7-12.19-6.24-18.25-9.43
		c-1.86-0.97-3.77-1.25-5.7-0.25c-4.33,2.22-8.63,4.5-12.98,6.7c-4.07,2.06-8.12,4.25-12.26,6.14c-2.47,1.13-4.81,2.54-7.11,3.97
		c-2.09,1.31-4.9,2.33-6.56,4.17c1.02,1.15,2.57,1.61,3.99,2.05c6.51,2.08,12.36,5.54,18.27,8.89c5.6,3.16,11.66,5.37,17.18,8.68
		c1.2,0.72,2.71,0.68,3.92,0.07c5.65-2.77,11.22-5.71,16.85-8.53C315.35,337.89,319.82,335.96,324.06,333.62z"/>
	<g>
		<g>
			<path class="st52" d="M334.06,327.97c-2.98,2.72-6.72,3.83-10,5.65c-4.25,2.34-8.71,4.27-13.06,6.44
				c-5.63,2.82-11.2,5.76-16.85,8.53c-1.21,0.6-2.72,0.64-3.92-0.07c-5.51-3.31-11.58-5.51-17.18-8.68
				c-5.91-3.35-11.76-6.81-18.27-8.89c-1.42-0.44-2.96-0.9-3.99-2.05c1.67-1.84,4.47-2.86,6.56-4.17c2.3-1.44,4.64-2.85,7.11-3.97
				c4.14-1.89,8.19-4.08,12.26-6.14c4.35-2.2,8.65-4.48,12.98-6.7c1.93-0.99,3.84-0.72,5.7,0.25c6.06,3.18,11.98,6.73,18.25,9.43
				c5.92,2.57,11.33,6.16,17.42,8.3C332.11,326.26,332.95,327.18,334.06,327.97z"/>
			<path class="st52" d="M334.33,377.05c-4.68,2.35-9.33,4.77-14.02,7.08c-4.12,2.01-8.29,3.89-12.39,5.9
				c-3.18,1.56-6.23,3.35-9.44,4.84c-2.94,1.37-3.3,1.08-3.3-2.06c-0.01-11.75,0.15-23.51-0.13-35.25
				c-0.09-3.47,1.74-4.65,4.19-5.85c4.29-2.08,8.56-4.16,12.82-6.26c6.46-3.19,12.89-6.41,19.34-9.55c1.54-0.74,2.88-1.79,4.56-2.37
				c2.08-0.71,2.31-0.01,2.3,1.7c-0.04,6.36-0.01,12.71-0.01,19.08c0,5.67-0.27,11.37,0.09,17.04
				C338.54,374.69,336.7,375.88,334.33,377.05z"/>
			<path class="st52" d="M338.01,0v270.26c-6.35-5.36-12.7-7.73-12.7-7.73c-11.52-4.47-23.39-6.72-35.61-6.72
				c-27.52,0-51.03,9.76-70.56,29.28c-19.51,19.51-29.26,43.04-29.26,70.55c0,27.52,9.75,51.04,29.26,70.55
				c19.53,19.53,43.04,29.27,70.56,29.27c24.93,0,46.68-8.12,65.25-24.34s29.64-36.44,33.17-60.67c0.69-4.24,1.05-8.47,1.05-12.72
				V24.51C373.16,14.6,356.04,6.35,338.01,0z M341.24,375.14c-0.03,1.22-0.71,2.31-1.79,2.86l-42.67,20.95
				c-1.42,0.7-3.1,0.66-4.48-0.11l-7.69-4.23c-4.52-2.35-8.9-4.65-13.31-6.89c-4.33-2.2-8.71-4.3-13.07-6.46
				c-4.03-1.98-7.97-4.13-12.08-5.95c-2.13-0.94-4.56-0.19-6.86-0.29c-3.75-0.2-7.52-0.03-11.28-0.1c-2.42-0.04-3.99-1.75-4.08-4.23
				c-0.1-2.31,1.39-3.92,3.89-4c3.86-0.13,7.71-0.13,11.57-0.18c0.58-0.01,1.2,0.12,1.72-0.05c2.2-0.71,4.17-1.82,4.28-4.43
				c0.08-2.01-2.23-3.83-5.01-3.89c-5.4-0.1-10.81-0.02-16.21-0.02c-1.25,0-2.52,0.1-3.76-0.03c-4.29-0.44-4.68-1.67-4.56-4.68
				c0.12-2.98,1.53-4.45,4.73-4.49c4.05-0.04,8.1,0.02,12.16-0.03c2.68-0.04,4.08-1.45,3.97-3.84c-0.1-2.3-1.66-3.77-4.17-3.79
				c-6.75-0.04-13.5-0.01-20.26-0.03c-3.21-0.01-5.12-1.73-5.09-4.55c0.02-3.04,1.66-4.59,5.01-4.61l14.99-0.07
				c5.73-0.03,11.35-1.42,16.42-4.08l45.79-24c1.35-0.71,2.96-0.73,4.31-0.07l46.39,22.79c1.07,0.51,1.75,1.61,1.73,2.81
				L341.24,375.14z"/>
		</g>
		<g>
			<path class="st12" d="M234.26,175.67c-0.33,0.4-5.63,6.8-7.46,8.4c-1.89,1.65-12.66,17.07-33.41-7.22
				c0.1,0.05,0.89,0.5,2.23,1.13c0,0,0,0,0.01,0.01c5.87,2.75,22.13,8.93,35.19,0.38C232,177.58,233.15,176.7,234.26,175.67z"/>
			<g>
				<path class="st12" d="M171.75,52.95l7.22-2.93C176.51,50.9,174.11,51.88,171.75,52.95z"/>
				<path class="st12" d="M286.64,71.62l-0.43-0.43c-14.95-12.13-29.5-17.91-29.5-17.91c-0.07-0.04-0.16-0.07-0.24-0.11
					c-0.83-0.38-1.66-0.75-2.51-1.11c-12.31-5.25-25.87-8.15-40.09-8.15c-12.26,0-24.02,2.15-34.9,6.1l-7.22,2.93
					c0,0-18.45,7.73-30.9,18.58c-15.98,15.86-25.63,35.11-28.93,57.72c-0.71,4.39-1.08,8.76-1.08,13.14v332.5
					c16.51,10.23,34.23,18.69,52.9,25.11V232.86c6.56,5.54,13.13,7.99,13.13,7.99c11.91,4.62,24.18,6.94,36.82,6.94
					c28.45,0,52.76-10.1,72.95-30.28c20.18-20.19,30.26-44.5,30.26-72.95S306.81,91.81,286.64,71.62z M213.79,219.05
					c-40.58,0-73.49-32.9-73.49-73.49c0-0.23,0-0.46,0.01-0.69c0.15-17.09,6.13-32.79,16.06-45.19c-0.27-0.1-0.54-0.22-0.8-0.35
					c-1.78-0.84-3.3-2.08-4.39-3.7c-4.36-6.52-0.44-16.82,8.79-22.99c9.22-6.17,20.24-5.9,24.6,0.63c0.6,0.9,1.05,1.87,1.35,2.9
					c0.12,0.42,0.21,0.84,0.27,1.27c8.53-3.46,17.83-5.37,27.59-5.37c10.69,0,20.85,2.28,30,6.38c0.1-0.41,0.21-0.82,0.36-1.22
					c0.27-0.77,0.65-1.51,1.11-2.2c4.36-6.52,15.39-6.79,24.61-0.62c9.22,6.18,13.15,16.47,8.79,22.99
					c-1.22,1.84-2.99,3.18-5.09,4.01c-0.25,0.1-0.52,0.21-0.79,0.29c8.99,12.07,14.36,27,14.5,43.18c0.01,0.22,0.01,0.46,0.01,0.69
					C287.3,186.15,254.39,219.05,213.79,219.05z"/>
				<path class="st12" d="M201.44,107.29c-6.08-9.95-22.97-10.68-37.75-1.66c-11.43,7-18.24,17.79-17.9,26.92
					c0.09,2.66,0.8,5.19,2.17,7.44c6.07,9.94,22.97,10.67,37.74,1.64c10.86-6.64,17.55-16.73,17.9-25.54
					C203.73,112.92,203.04,109.91,201.44,107.29z M183.85,126.63c-0.38,0.07-0.74,0.15-0.94,0.26c-0.54,0.28-4.06,1.53-7.58-0.3
					c-2.42-1.26-7.18-0.85-9.92-0.46c-1.24,0.17-2.06,0.33-2.06,0.33s8.73-8.5,15.81-4.48c0,0,4.72,2.82,5.9,4.48
					C185.05,126.46,184.44,126.51,183.85,126.63z"/>
				<path class="st12" d="M282.24,133.31c-0.36-8.81-7.04-18.89-17.9-25.52c-14.77-9.04-31.67-8.3-37.75,1.64
					c-1.37,2.23-2.08,4.76-2.16,7.42c-0.34,9.13,6.46,19.92,17.9,26.92c14.77,9.02,31.66,8.29,37.74-1.64
					C281.68,139.5,282.37,136.49,282.24,133.31z M262.31,126.79c-0.37,0.07-0.74,0.15-0.95,0.27c-0.54,0.27-4.06,1.53-7.58-0.3
					c-2.41-1.27-7.18-0.85-9.92-0.46c-1.24,0.18-2.06,0.33-2.06,0.33s8.72-8.49,15.8-4.47c0,0,4.73,2.82,5.9,4.47
					C263.5,126.62,262.9,126.68,262.31,126.79z"/>
				<g>
					<g>
						<path class="st12" d="M236.61,159.06c0,5.17-10.22,9.36-22.82,9.36c-12.58,0-22.8-4.19-22.8-9.36c0-0.24,0.02-0.46,0.07-0.69
							c0.86-4.84,10.72-8.66,22.74-8.66c12.03,0,21.89,3.82,22.75,8.66C236.59,158.6,236.61,158.83,236.61,159.06z"/>
					</g>
				</g>
			</g>
		</g>
	</g>
</g>
</svg>
